<svg width="128" xmlns="http://www.w3.org/2000/svg" height="128" id="screenshot-1fce3b06-9cae-80eb-8005-773eb6862d3d" fill="none" version="1.1"><style>/* latin-ext */
@font-face {
  font-family: &apos;Cantarell&apos;;
  font-style: normal;
  font-weight: 700;
  font-display: block;
  src: url(https://design.penpot.app/internal/gfonts/font/cantarell/v17/B50IF7ZDq37KMUvlO01xN4d-HY6fFY8.woff2) format(&apos;woff2&apos;);
  unicode-range: U+0100-02BA, U+02BD-02C5, U+02C7-02CC, U+02CE-02D7, U+02DD-02FF, U+0304, U+0308, U+0329, U+1D00-1DBF, U+1E00-1E9F, U+1EF2-1EFF, U+2020, U+20A0-20AB, U+20AD-20C0, U+2113, U+2C60-2C7F, U+A720-A7FF;
}
/* latin */
@font-face {
  font-family: &apos;Cantarell&apos;;
  font-style: normal;
  font-weight: 700;
  font-display: block;
  src: url(https://design.penpot.app/internal/gfonts/font/cantarell/v17/B50IF7ZDq37KMUvlO01xN4d-E46f.woff2) format(&apos;woff2&apos;);
  unicode-range: U+0000-00FF, U+0131, U+0152-0153, U+02BB-02BC, U+02C6, U+02DA, U+02DC, U+0304, U+0308, U+0329, U+2000-206F, U+20AC, U+2122, U+2191, U+2193, U+2212, U+2215, U+FEFF, U+FFFD;
}</style><g id="shape-1fce3b06-9cae-80eb-8005-773eb6862d3d"><defs><clipPath id="frame-clip-1fce3b06-9cae-80eb-8005-773eb6862d3d-render-1" class="frame-clip frame-clip-def"><rect rx="0" ry="0" width="128" height="128" transform="matrix(1.000000, 0.000000, 0.000000, 1.000000, 0.000000, 0.000000)"/></clipPath></defs><g clip-path="url(#frame-clip-1fce3b06-9cae-80eb-8005-773eb6862d3d-render-1)"><g class="fills" id="fills-1fce3b06-9cae-80eb-8005-773eb6862d3d"><rect rx="0" ry="0" width="128" height="128" transform="matrix(1.000000, 0.000000, 0.000000, 1.000000, 0.000000, 0.000000)" class="frame-background"/></g><g class="frame-children"><g id="shape-1fce3b06-9cae-80eb-8005-774324446c7c"><g id="shape-1fce3b06-9cae-80eb-8005-77432df79428"><rect rx="8" ry="8" x="13" y="19" transform="matrix(1.000000, 0.000000, 0.000000, 1.000000, 0.000000, 0.000000)" width="98" height="66" style="fill: rgb(119, 118, 123); fill-opacity: 1;" class="fills" id="fills-1fce3b06-9cae-80eb-8005-77432df79428"/></g><g id="shape-1fce3b06-9cae-80eb-8005-773f3115d92f"><rect rx="8" ry="8" x="13" y="21" transform="matrix(1.000000, 0.000000, 0.000000, 1.000000, 0.000000, 0.000000)" width="96" height="64" style="fill: rgb(36, 31, 49); fill-opacity: 1;" class="fills" id="fills-1fce3b06-9cae-80eb-8005-773f3115d92f"/></g></g><g id="shape-1fce3b06-9cae-80eb-8005-77440526d9bb"><g id="shape-1fce3b06-9cae-80eb-8005-77423c82e17f"><rect rx="4" ry="4" x="21" y="29" transform="matrix(1.000000, 0.000000, 0.000000, 1.000000, 0.000000, 0.000000)" width="80" height="48" style="fill: rgb(61, 56, 70); fill-opacity: 1;" class="fills" id="fills-1fce3b06-9cae-80eb-8005-77423c82e17f"/></g><g transform="matrix(1.000000, 0.000000, 0.000000, 1.000000, 0.000000, 0.000000)" class="text-container" id="shape-1fce3b06-9cae-80eb-8005-77418af61070"><defs><pattern patternUnits="userSpaceOnUse" x="29" y="37" width="34.304" height="34" id="fill-0-render-7-0"><rect width="34.304" height="34" style="fill: rgb(87, 227, 137); fill-opacity: 1;"/></pattern></defs><text x="43.853" y="68.398" dominant-baseline="ideographic" textLength="34.304" lengthAdjust="spacingAndGlyphs" style="text-transform: none; font-family: Cantarell; letter-spacing: normal; font-style: normal; font-weight: 700; white-space: pre; font-size: 24px; text-decoration: rgb(87, 227, 137); direction: ltr; fill: rgb(87, 227, 137); fill-opacity: 1;" class="fills" id="fills-1fce3b06-9cae-80eb-8005-77418af61070">01</text></g><g id="shape-1fce3b06-9cae-80eb-8005-7743f8804544"><path d="M25,29 h72 a4,4 0 0 1 4,4 v4 a0,0 0 0 1 0,0 h-80 a0,0 0 0 1 0,0 v-4 a4,4 0 0 1 4,-4 z" transform="matrix(1.000000, 0.000000, 0.000000, 1.000000, 0.000000, 0.000000)" style="fill: rgb(94, 92, 100); fill-opacity: 1;" class="fills" id="fills-1fce3b06-9cae-80eb-8005-7743f8804544"/></g><g id="shape-1fce3b06-9cae-80eb-8005-77427bc2d81f"><ellipse cx="97" cy="33" rx="3" ry="3" transform="matrix(1.000000, 0.000000, 0.000000, 1.000000, 0.000000, 0.000000)" style="fill: rgb(119, 118, 123); fill-opacity: 1;" class="fills" id="fills-1fce3b06-9cae-80eb-8005-77427bc2d81f"/></g></g><g id="shape-1fce3b06-9cae-80eb-8005-7742ecd0849c"><g id="shape-1fce3b06-9cae-80eb-8005-7742cd1e171e"><rect rx="3" ry="3" x="21.825" y="87" transform="matrix(1.000000, 0.000000, 0.000000, 1.000000, 0.000000, 0.000000)" width="79.175" height="24" style="fill: rgb(94, 92, 100); fill-opacity: 0.8;" class="fills" id="fills-1fce3b06-9cae-80eb-8005-7742cd1e171e"/></g><g id="shape-1fce3b06-9cae-80eb-8005-7742a52373d3"><rect rx="3" ry="3" x="21" y="88" transform="matrix(1.000000, 0.000000, 0.000000, 1.000000, 0.000000, 0.000000)" width="79.175" height="24" style="fill: rgb(94, 92, 100); fill-opacity: 1;" class="fills" id="fills-1fce3b06-9cae-80eb-8005-7742a52373d3"/></g><g id="shape-1fce3b06-9cae-80eb-8005-774513b580be"><g id="shape-1fce3b06-9cae-80eb-8005-774545d937d3"><rect rx="1" ry="1" x="46" y="101" transform="matrix(1.000000, 0.000000, 0.000000, 1.000000, 0.000000, 0.000000)" width="30" height="8" style="fill: rgb(177, 178, 181); fill-opacity: 1;" class="fills" id="fills-1fce3b06-9cae-80eb-8005-774545d937d3"/></g><g id="shape-1fce3b06-9cae-80eb-8005-7744ecc2cd7e"><rect rx="1" ry="1" x="32" y="90" transform="matrix(1.000000, 0.000000, 0.000000, 1.000000, 0.000000, 0.000000)" width="8" height="8" style="fill: rgb(177, 178, 181); fill-opacity: 1;" class="fills" id="fills-1fce3b06-9cae-80eb-8005-7744ecc2cd7e"/></g><g id="shape-1fce3b06-9cae-80eb-8005-774509a9f867"><rect rx="1" ry="1" x="42" y="90" transform="matrix(1.000000, 0.000000, 0.000000, 1.000000, 0.000000, 0.000000)" width="8" height="8" style="fill: rgb(177, 178, 181); fill-opacity: 1;" class="fills" id="fills-1fce3b06-9cae-80eb-8005-774509a9f867"/></g><g id="shape-1fce3b06-9cae-80eb-8005-77450d01403c"><rect rx="1" ry="1" x="52" y="90" transform="matrix(1.000000, 0.000000, 0.000000, 1.000000, 0.000000, 0.000000)" width="8" height="8" style="fill: rgb(177, 178, 181); fill-opacity: 1;" class="fills" id="fills-1fce3b06-9cae-80eb-8005-77450d01403c"/></g><g id="shape-1fce3b06-9cae-80eb-8005-77451e7b2843"><rect rx="1" ry="1" x="62" y="90" transform="matrix(1.000000, 0.000000, 0.000000, 1.000000, 0.000000, 0.000000)" width="8" height="8" style="fill: rgb(177, 178, 181); fill-opacity: 1;" class="fills" id="fills-1fce3b06-9cae-80eb-8005-77451e7b2843"/></g><g id="shape-1fce3b06-9cae-80eb-8005-77451e7b2844"><rect rx="1" ry="1" x="72" y="90" transform="matrix(1.000000, 0.000000, 0.000000, 1.000000, 0.000000, 0.000000)" width="8" height="8" style="fill: rgb(177, 178, 181); fill-opacity: 1;" class="fills" id="fills-1fce3b06-9cae-80eb-8005-77451e7b2844"/></g><g id="shape-1fce3b06-9cae-80eb-8005-77451e7b2845"><rect rx="1" ry="1" x="82" y="90" transform="matrix(1.000000, 0.000000, 0.000000, 1.000000, 0.000000, 0.000000)" width="8" height="8" style="fill: rgb(177, 178, 181); fill-opacity: 1;" class="fills" id="fills-1fce3b06-9cae-80eb-8005-77451e7b2845"/></g></g></g></g></g></g></svg>